<?xml version="1.0" encoding="UTF-8" standalone="no"?>
<svg
   xmlns:dc="http://purl.org/dc/elements/1.1/"
   xmlns:cc="http://creativecommons.org/ns#"
   xmlns:rdf="http://www.w3.org/1999/02/22-rdf-syntax-ns#"
   xmlns:svg="http://www.w3.org/2000/svg"
   xmlns="http://www.w3.org/2000/svg"
   xmlns:sodipodi="http://sodipodi.sourceforge.net/DTD/sodipodi-0.dtd"
   xmlns:inkscape="http://www.inkscape.org/namespaces/inkscape"
   width="32"
   height="17.065062"
   version="1.1"
   id="svg8"
   sodipodi:docname="toolbar-latex.svg"
   inkscape:version="1.0.1 (3bc2e813f5, 2020-09-07)">
  <metadata
     id="metadata14">
    <rdf:RDF>
      <cc:Work
         rdf:about="">
        <dc:format>image/svg+xml</dc:format>
        <dc:type
           rdf:resource="http://purl.org/dc/dcmitype/StillImage" />
      </cc:Work>
    </rdf:RDF>
  </metadata>
  <defs
     id="defs12" />
  <sodipodi:namedview
     pagecolor="#ffffff"
     bordercolor="#666666"
     borderopacity="1"
     objecttolerance="10"
     gridtolerance="10"
     guidetolerance="10"
     inkscape:pageopacity="0"
     inkscape:pageshadow="2"
     inkscape:window-width="1736"
     inkscape:window-height="1069"
     id="namedview10"
     showgrid="false"
     inkscape:zoom="1.213035"
     inkscape:cx="509.39"
     inkscape:cy="267.03506"
     inkscape:window-x="0"
     inkscape:window-y="0"
     inkscape:window-maximized="0"
     inkscape:current-layer="svg8" />
  <path
     d="M 11.323317,0.0269697 H 0.3216065 L 0,4.2220475 H 0.3423959 C 0.5887194,1.0800516 0.8592971,0.5299904 3.8139182,0.5299904 c 0.3423959,0 0.898672,0 1.0517552,0 C 5.229492,0.586755 5.229492,0.8172512 5.229492,1.2537879 V 11.579505 c 0,0.685538 -0.057644,0.894712 -1.6625266,0.894712 H 3.0261238 v 0.458175 c 0.9141064,-0.01756 1.8666409,-0.03606 2.8012232,-0.03606 0.931744,0 1.887112,0.0185 2.80059,0.03606 V 12.474217 H 8.096232 c -1.580944,0 -1.637958,-0.209174 -1.637958,-0.894712 V 1.2541013 c 0,-0.4189745 0,-0.6463369 0.343026,-0.7237976 h 1.045458 c 2.915246,0 3.200628,0.5469252 3.446637,3.6920572 h 0.343026"
     id="path2"
     style="stroke-width:0.0314297" />
  <path
     d="m 20.88363,12.271001 h -0.342396 c -0.417679,2.812713 -0.664003,4.34153 -4.015198,4.34153 h -2.644354 c -0.76102,0 -0.79693,-0.09565 -0.79693,-0.748258 v -5.302099 h 1.797342 c 1.797343,0 1.968699,0.655746 1.968699,2.256693 h 0.30617 V 7.8843118 h -0.30617 c 0,1.573978 -0.17167,2.2174922 -1.968699,2.2174922 H 13.084436 V 5.4008838 c 0,-0.6403785 0.03623,-0.7360282 0.796928,-0.7360282 h 2.604983 c 2.948322,0 3.291346,1.1666062 3.558461,3.6744952 h 0.343341 L 19.931098,4.1439601 h -9.646936 v 0.5208955 c 1.349427,0 1.565509,0 1.565509,0.8526882 V 15.754198 c 0,0.852689 -0.21325,0.852689 -1.565509,0.852689 v 0.458175 h 9.914676"
     id="path4"
     style="stroke-width:0.0314297" />
  <path
     d="M 26.019885,5.7540018 28.838745,1.696596 C 29.120976,1.2983192 29.695204,0.4785594 31.25851,0.4578618 V 0 c -0.436265,0.036061 -1.160114,0.036061 -1.61717,0.036061 -0.627775,0 -1.409584,0 -1.884274,-0.036061 v 0.4581751 c 0.610134,0.056765 0.760071,0.4365367 0.760071,0.7423 0,0.2267357 -0.09323,0.3797744 -0.228367,0.5682503 L 25.773562,5.4008838 22.954701,1.2929879 C 22.822404,1.086323 22.803819,1.0264254 22.803819,0.9696631 c 0,-0.1709143 0.207582,-0.4939265 0.838509,-0.5118013 V 0 c -0.610141,0.036061 -1.541885,0.036061 -2.169663,0.036061 -0.493275,0 -1.445494,0 -1.9057,-0.036061 v 0.4581751 c 1.046403,0 1.388798,0.039203 1.809627,0.6281479 l 3.675322,5.3742278 -3.314342,4.8204042 c -0.817716,1.178836 -2.055635,1.199534 -2.419765,1.199534 v 0.458175 c 0.435318,-0.03606 1.160115,-0.03606 1.617167,-0.03606 0.514067,0 1.409588,0 1.88428,0.03606 v -0.458175 c -0.58935,-0.05677 -0.760072,-0.436537 -0.760072,-0.7423 0,-0.245238 0.09323,-0.379774 0.189306,-0.514624 l 3.047545,-4.4280852 3.314343,4.8501952 c 0.149934,0.209801 0.149934,0.266564 0.149934,0.323326 0,0.149276 -0.170722,0.475737 -0.837878,0.514624 V 12.9418 c 0.610141,-0.03606 1.541885,-0.03606 2.169663,-0.03606 0.493275,0 1.445485,0 1.907905,0.03606 v -0.458175 c -1.220278,0 -1.412422,-0.09283 -1.791041,-0.628149"
     id="path6"
     style="stroke-width:0.0314297" />
</svg>
